<?xml version="1.0" standalone="no"?><!-- Generator: Gravit.io --><svg xmlns="http://www.w3.org/2000/svg" xmlns:xlink="http://www.w3.org/1999/xlink" style="isolation:isolate" viewBox="0 0 48 48" width="48" height="48"><defs><clipPath id="_clipPath_HIFnLm0i1wlW7OT9TRLrNMgXOjexYN8r"><rect width="48" height="48"/></clipPath></defs><g clip-path="url(#_clipPath_HIFnLm0i1wlW7OT9TRLrNMgXOjexYN8r)"><g opacity="0.489"><radialGradient id="_rgradient_0" fx="0.5000711971805917" fy="0.49993456435998507" cx="0.5000711971805917" cy="0.49993456435998507" r="28.09" gradientTransform="matrix(43.198,0,0,6.291,2.401,39.892)" gradientUnits="userSpaceOnUse"><stop offset="0%" stop-opacity="1" style="stop-color:rgb(46,52,54)"/><stop offset="100%" stop-opacity="0" style="stop-color:rgb(46,52,54)"/></radialGradient><path d=" M 45.599 43.037 C 45.599 44.774 35.929 46.182 24 46.182 C 12.071 46.182 2.401 44.774 2.401 43.037 C 2.401 41.3 12.071 39.892 24 39.892 C 35.929 39.892 45.599 41.3 45.599 43.037 Z " fill="url(#_rgradient_0)"/></g><path d=" M 23.912 5.175 C 23.351 5.182 22.851 5.519 22.57 6.059 L 4.883 40.175 C 4.606 40.721 4.648 41.399 4.932 41.941 C 5.217 42.483 5.709 42.823 6.274 42.824 L 41.699 42.769 C 42.159 42.772 42.637 42.545 42.941 42.162 C 43.245 41.779 43.349 41.288 43.289 40.782 C 43.261 40.567 43.235 40.309 43.14 40.119 L 25.303 6.003 C 25.011 5.471 24.473 5.168 23.912 5.175 L 23.912 5.175 Z " fill="rgb(245,121,0)" vector-effect="non-scaling-stroke" stroke-width="0.99" stroke="rgb(166,74,0)" stroke-linejoin="round" stroke-linecap="square" stroke-miterlimit="4"/><g opacity="0.8"><linearGradient id="_lgradient_0" x1="-0.088101250426755" y1="-0.014701398182891456" x2="-0.08810125042675519" y2="1.014640702668644"><stop offset="0%" stop-opacity="0.8" style="stop-color:rgb(255,255,255)"/><stop offset="100%" stop-opacity="0" style="stop-color:rgb(255,255,255)"/></linearGradient><path d=" M 23.915 6.25 C 23.679 6.253 23.498 6.369 23.381 6.594 L 5.691 40.688 C 5.687 40.696 5.694 40.711 5.691 40.719 C 5.609 40.902 5.613 41.152 5.747 41.407 C 5.873 41.646 6.049 41.75 6.281 41.75 L 41.691 41.719 C 41.846 41.72 42.111 41.613 42.225 41.469 C 42.345 41.318 42.386 41.154 42.366 40.938 C 42.363 40.912 42.369 40.93 42.366 40.907 C 42.338 40.717 42.311 40.61 42.338 40.657 C 42.341 40.662 42.333 40.615 42.338 40.625 L 24.478 6.531 C 24.369 6.333 24.18 6.247 23.916 6.25 L 23.915 6.25 Z " fill="none" vector-effect="non-scaling-stroke" stroke-width="0.99" stroke="url(#_lgradient_0)" stroke-linejoin="round" stroke-linecap="square" stroke-miterlimit="4"/></g><path d=" M 24 12.644 C 23.079 12.644 22.181 12.967 21.438 13.581 C 20.615 14.257 20.219 15.326 20.219 16.519 C 20.219 17.05 20.291 17.578 20.344 18.081 C 20.344 18.092 20.344 18.102 20.344 18.113 C 20.412 18.616 20.483 19.059 20.562 19.456 C 20.562 19.467 20.562 19.477 20.562 19.488 C 20.641 19.824 20.72 20.251 20.812 20.769 C 21.065 22.093 21.313 23.763 21.531 25.738 C 21.763 27.709 21.882 29.179 21.906 30.081 C 21.934 30.893 22.018 31.501 22.25 32.05 C 22.25 32.061 22.25 32.071 22.25 32.081 C 22.545 32.721 23.317 33.113 24 33.113 C 24.589 33.113 25.217 32.803 25.562 32.3 C 25.902 31.806 26.028 31.228 26.031 30.581 C 26.031 30.57 26.031 30.561 26.031 30.55 C 26.07 28.759 26.43 25.515 27.187 20.894 C 27.552 18.862 27.781 17.459 27.781 16.519 C 27.781 15.383 27.382 14.348 26.625 13.644 C 25.898 12.968 24.965 12.644 24 12.644 L 24 12.644 Z  M 23.969 34.769 C 23.14 34.769 22.342 35.115 21.75 35.706 C 21.167 36.29 20.844 37.083 20.844 37.894 C 20.844 38.687 21.169 39.47 21.75 40.05 C 21.75 40.06 21.75 40.071 21.75 40.081 C 22.35 40.663 23.158 40.956 23.969 40.956 C 24.763 40.956 25.537 40.627 26.125 40.05 L 26.156 40.05 C 26.734 39.479 27.094 38.697 27.094 37.894 C 27.094 37.08 26.761 36.279 26.187 35.706 C 26.181 35.7 26.162 35.713 26.156 35.706 C 25.576 35.119 24.78 34.769 23.969 34.769 L 23.969 34.769 Z " fill="rgb(0,0,0)"/><path d=" M 24.01 13.535 C 24.799 13.535 25.471 13.793 26.027 14.311 C 26.583 14.828 26.861 15.565 26.861 16.521 C 26.861 17.31 26.68 18.713 26.318 20.73 C 25.555 25.384 25.154 28.655 25.115 30.543 C 25.115 31.655 24.747 32.21 24.01 32.21 C 23.532 32.21 23.215 32.042 23.06 31.706 C 22.918 31.37 22.833 30.821 22.808 30.058 C 22.782 29.088 22.652 27.614 22.42 25.636 C 22.2 23.645 21.961 21.971 21.702 20.613 C 21.612 20.109 21.521 19.663 21.431 19.275 C 21.353 18.887 21.282 18.454 21.217 17.976 C 21.166 17.485 21.14 17 21.14 16.521 C 21.14 15.5 21.431 14.75 22.013 14.272 C 22.607 13.781 23.273 13.535 24.01 13.535 M 21.741 37.893 C 21.741 37.272 21.954 36.749 22.381 36.322 C 22.821 35.882 23.351 35.663 23.971 35.663 C 24.579 35.663 25.096 35.882 25.523 36.322 C 25.962 36.749 26.182 37.272 26.182 37.893 C 26.182 38.488 25.962 38.998 25.523 39.425 C 25.096 39.852 24.579 40.065 23.971 40.065 C 23.351 40.065 22.82 39.852 22.381 39.425 C 21.954 38.998 21.741 38.488 21.741 37.893 Z " fill="rgb(0,0,0)"/><linearGradient id="_lgradient_1" x1="-0.050976280011570674" y1="-0.97680831007077" x2="0.5958061030168385" y2="1.068296695541847" gradientTransform="matrix(24.89,0,0,29.156,8.165,5.718)" gradientUnits="userSpaceOnUse"><stop offset="0%" stop-opacity="0.8" style="stop-color:rgb(255,255,255)"/><stop offset="100%" stop-opacity="0" style="stop-color:rgb(255,255,255)"/></linearGradient><path d=" M 23.915 5.719 C 23.516 5.724 23.186 5.93 22.987 6.313 L 8.165 34.875 C 15.94 30.255 24.686 25.645 33.056 21.875 L 24.899 6.25 C 24.699 5.884 24.328 5.713 23.915 5.718 L 23.915 5.719 Z " fill="url(#_lgradient_1)"/></g></svg>